<?xml version="1.0" encoding="utf-8"?>
<!-- Generator: Adobe Illustrator 28.1.0, SVG Export Plug-In . SVG Version: 6.00 Build 0)  -->
<svg version="1.1" id="Ebene_1" xmlns="http://www.w3.org/2000/svg" xmlns:xlink="http://www.w3.org/1999/xlink" x="0px" y="0px"
	 viewBox="0 0 800 800" style="enable-background:new 0 0 800 800;" xml:space="preserve">
<g>
	<path d="M154.6,649.8c-31.1,2.8-57.1-23.2-54.4-54.4c2.1-23.9,21.4-43.1,45.2-45.2c31.1-2.8,57.1,23.2,54.4,54.4
		C197.7,628.4,178.4,647.7,154.6,649.8z M700,633.4C700,633.4,700,633.4,700,633.4l-333.3,0c-18.4,0-33.3-14.9-33.3-33.3
		c0-18.4,14.9-33.3,33.3-33.3c0,0,0,0,0,0l333.3,0c18.4,0,33.3,14.9,33.3,33.3C733.3,618.4,718.4,633.4,700,633.4z M151.3,483.3
		c-8.9,0-17.4-3.6-23.7-9.9l-51.3-51.9c-12.9-13.1-12.8-34.2,0.3-47.1c13.1-12.9,34.2-12.8,47.1,0.3l27.6,27.9l91.7-92.7
		c12.9-13.1,34.1-13.2,47.1-0.3c13.1,12.9,13.2,34.1,0.3,47.1L175,473.4C168.7,479.8,160.2,483.3,151.3,483.3z M700,433.4
		C700,433.4,700,433.4,700,433.4l-333.3,0c-18.4,0-33.3-14.9-33.3-33.3c0-18.4,14.9-33.3,33.3-33.3c0,0,0,0,0,0l333.3,0
		c18.4,0,33.3,14.9,33.3,33.3C733.3,418.4,718.4,433.4,700,433.4z M151.3,283.3c-8.9,0-17.4-3.6-23.7-9.9l-51.3-51.9
		c-12.9-13.1-12.8-34.2,0.3-47.1c13.1-12.9,34.2-12.8,47.1,0.3l27.6,27.9l91.7-92.7c12.9-13.1,34.1-13.2,47.1-0.3
		c13.1,12.9,13.2,34.1,0.3,47.1L175,273.4C168.7,279.8,160.2,283.3,151.3,283.3z M700,233.4C700,233.4,700,233.4,700,233.4l-333.3,0
		c-18.4,0-33.3-14.9-33.3-33.3c0-18.4,14.9-33.3,33.3-33.3c0,0,0,0,0,0l333.3,0c18.4,0,33.3,14.9,33.3,33.3
		C733.3,218.4,718.4,233.4,700,233.4z"/>
</g>
</svg>
