<?xml version="1.0" encoding="UTF-8"?>
<svg xmlns="http://www.w3.org/2000/svg" id="Layer_1" data-name="Layer 1" viewBox="0 0 24 24">
  <path d="m5,12c-.002.017-.001-.013,0,0h0Zm13.5-.5H6.091c.074-.206.195-.4.362-.564l3.948-4.043c.193-.198.189-.515-.009-.707-.197-.193-.513-.188-.707.008l-3.941,4.037c-.479.473-.744,1.141-.744,1.77.007.624.247,1.285.716,1.761l3.923,4.086c.098.102.229.153.361.153.125,0,.25-.046.346-.14.199-.19.206-.508.015-.707l-3.928-4.091c-.162-.164-.279-.357-.349-.562h12.416c.276,0,.5-.224.5-.5s-.224-.5-.5-.5Z"/>
</svg>
