<?xml version="1.0" encoding="utf-8"?>
<!-- Generator: Adobe Illustrator 28.3.0, SVG Export Plug-In . SVG Version: 6.00 Build 0)  -->
<svg version="1.1" id="Layer_1" xmlns="http://www.w3.org/2000/svg" xmlns:xlink="http://www.w3.org/1999/xlink" x="0px" y="0px"
	 viewBox="0 0 400 400" style="enable-background:new 0 0 400 400;" xml:space="preserve">
<path d="M312.4,102.1L219.3,7.9C209-2.6,191-2.6,180.7,7.9l-93.1,94.3c-7.8,8-10.1,19.8-5.8,30.1c4.4,10.4,14,16.9,25.2,16.9h82.3
	c0,0,0,0,0,0v239.8c0,5.9,4.6,11,10.5,11c6,0.1,10.8-4.7,10.8-10.7V149.1c0,0,0,0,0,0H293c11.2,0,20.8-6.5,25.2-16.9
	C322.5,121.9,320.3,110.1,312.4,102.1L312.4,102.1z M298.5,124c-0.5,1.1-2,3.7-5.5,3.7H107c-3.5,0-5-2.6-5.5-3.7
	c-0.5-1.2-1.3-4.2,1.3-6.9l93-94.3c1.1-1.1,2.6-1.8,4.2-1.8c1.6,0,3.1,0.6,4.2,1.8l93,94.3C299.9,119.8,299,122.8,298.5,124
	L298.5,124z"/>
</svg>
