<?xml version="1.0" encoding="UTF-8"?>
<svg xmlns="http://www.w3.org/2000/svg" id="Layer_1" data-name="Layer 1" viewBox="0 0 24 24" width="512" height="512"><path d="M23.84,16.87l-2.59,2.41c-.46,.46-1.09,.72-1.76,.72s-1.3-.26-1.77-.73l-2.57-2.4c-.2-.19-.21-.5-.02-.71,.19-.2,.5-.21,.71-.02l2.59,2.41c.17,.17,.36,.28,.57,.36V8.5c0-1.93-1.57-3.5-3.5-3.5h-6c-.28,0-.5-.22-.5-.5s.22-.5,.5-.5h6c2.48,0,4.5,2.02,4.5,4.5v10.41c.21-.07,.4-.19,.56-.35l2.6-2.43c.2-.19,.52-.18,.71,.02,.19,.2,.18,.52-.02,.71Zm-9.34,2.13h-6c-1.93,0-3.5-1.57-3.5-3.5V5.1c.21,.07,.41,.19,.57,.36l2.59,2.41c.1,.09,.22,.13,.34,.13,.13,0,.27-.05,.37-.16,.19-.2,.18-.52-.02-.71l-2.57-2.4c-.94-.95-2.6-.93-3.52-.01L.16,7.13c-.2,.19-.21,.5-.02,.71,.19,.2,.5,.21,.71,.02l2.6-2.43c.16-.16,.35-.28,.56-.35V15.5c0,2.48,2.02,4.5,4.5,4.5h6c.28,0,.5-.22,.5-.5s-.22-.5-.5-.5Z"/></svg>
