<?xml version="1.0" encoding="utf-8"?>
<!-- Generator: Adobe Illustrator 28.3.0, SVG Export Plug-In . SVG Version: 6.00 Build 0)  -->
<svg version="1.1" id="Layer_1" xmlns="http://www.w3.org/2000/svg" xmlns:xlink="http://www.w3.org/1999/xlink" x="0px" y="0px"
	 viewBox="-20 -20 532 532" xml:space="preserve">
<path d="M0,501.3L0,10.7C0,4.7,4.7,0,10.7,0s10.7,4.7,10.7,10.7v490.7c0,6-4.7,10.7-10.7,10.7S0,507.3,0,501.3z M74.7,266.7h414.1
	c-1.5,4.5-4.3,8.5-7.7,12.2L387,376.5c-4.1,4.3-4.1,11.1,0.2,15.1c4.3,4.1,10.9,4.1,15.1-0.2l94.1-97.7c10-10,15.6-23.5,15.6-37.8
	s-5.5-27.7-15.6-37.5l-94.1-97.9c-2.1-2.1-4.9-3.2-7.7-3.2c-2.8,0-5.3,1.1-7.5,3c-4.3,4.1-4.5,10.9-0.2,15.1l94.3,97.9
	c3.4,3.4,6,7.5,7.5,11.9l0,0H74.7c-6,0-10.7,4.7-10.7,10.7S68.7,266.7,74.7,266.7z"/>
</svg>
