<?xml version="1.0" encoding="UTF-8"?>
<svg xmlns="http://www.w3.org/2000/svg" id="Layer_1" data-name="Layer 1" viewBox="0 0 24 24" width="512" height="512"><path d="M21,13H3c-1.1,0-2-.9-2-2C1,4.93,5.93,0,12,0s10.99,4.83,11,11c0,1.1-.9,2-2,2ZM12,1C6.49,1,2,5.49,2,11c0,.55,.45,1,1,1H21c.55,0,1-.45,1-1-.01-5.61-4.41-10-10-10Zm11,14.5c0-.28-.22-.5-.5-.5H1.5c-.28,0-.5,.22-.5,.5s.22,.5,.5,.5H22.5c.28,0,.5-.22,.5-.5Zm-4.5,8.5H5.5c-2.48,0-4.5-2.02-4.5-4.5,0-.83,.67-1.5,1.5-1.5H21.5c.83,0,1.5,.67,1.5,1.5,0,2.48-2.02,4.5-4.5,4.5ZM2.5,19c-.28,0-.5,.22-.5,.5,0,1.93,1.57,3.5,3.5,3.5h13c1.93,0,3.5-1.57,3.5-3.5,0-.28-.22-.5-.5-.5H2.5Z"/></svg>
