<?xml version="1.0" encoding="UTF-8"?>
<svg xmlns="http://www.w3.org/2000/svg" id="Layer_1" data-name="Layer 1" viewBox="0 0 24 24" width="512" height="512"><path d="M19.5,2h-1.5V.5c0-.28-.22-.5-.5-.5s-.5,.22-.5,.5v1.5H7V.5c0-.28-.22-.5-.5-.5s-.5,.22-.5,.5v1.5h-1.5C2.02,2,0,4.02,0,6.5v13c0,2.48,2.02,4.5,4.5,4.5h15c2.48,0,4.5-2.02,4.5-4.5V6.5c0-2.48-2.02-4.5-4.5-4.5Zm-8,7v4H7v-4h4.5Zm5.5,0v4h-4.5v-4h4.5Zm6,0v4h-5v-4h5ZM6,13H1v-4H6v4Zm-5,1H6v4H1v-4Zm6,0h4.5v4H7v-4Zm4.5,5v4H7v-4h4.5Zm1,0h4.5v4h-4.5v-4Zm0-1v-4h4.5v4h-4.5Zm5.5-4h5v4h-5v-4ZM4.5,3h15c1.93,0,3.5,1.57,3.5,3.5v1.5H1v-1.5c0-1.93,1.57-3.5,3.5-3.5ZM1,19.5v-.5H6v4h-1.5c-1.93,0-3.5-1.57-3.5-3.5Zm18.5,3.5h-1.5v-4h5v.5c0,1.93-1.57,3.5-3.5,3.5Z"/></svg>
