<?xml version="1.0" encoding="UTF-8"?>
<svg xmlns="http://www.w3.org/2000/svg" id="Layer_1" data-name="Layer 1" viewBox="0 0 24 24" width="512" height="512"><path d="M22.94,15.88l-1.46-8.18c-.38-2.15-2.25-3.71-4.43-3.71h-.56c.31-.42,.5-.94,.5-1.5,0-1.38-1.12-2.5-2.5-2.5h-5c-1.38,0-2.5,1.12-2.5,2.5,0,.56,.19,1.08,.5,1.5h-.56c-2.18,0-4.05,1.56-4.43,3.71L1.06,15.88c-.18,1.02,.1,2.07,.76,2.86,.67,.8,1.65,1.25,2.68,1.25h3.5c0,2.21,1.79,4,4,4s4-1.79,4-4h3.5c1.04,0,2.02-.46,2.68-1.25,.67-.8,.94-1.84,.76-2.86ZM8,2.5c0-.83,.67-1.5,1.5-1.5h5c.83,0,1.5,.67,1.5,1.5s-.67,1.5-1.5,1.5h-5c-.83,0-1.5-.67-1.5-1.5Zm4,20.5c-1.65,0-3-1.35-3-3h6c0,1.65-1.35,3-3,3Zm9.42-4.9c-.48,.57-1.18,.9-1.92,.9H4.5c-.74,0-1.44-.33-1.92-.9-.48-.57-.67-1.31-.54-2.04L3.5,7.88c.3-1.67,1.75-2.88,3.45-2.88h10.11c1.7,0,3.15,1.21,3.45,2.88l1.46,8.18c.13,.73-.07,1.48-.54,2.04Z"/></svg>
