<?xml version="1.0" encoding="UTF-8"?>
<svg xmlns="http://www.w3.org/2000/svg" id="Layer_1" data-name="Layer 1" viewBox="0 0 24 24">
  <path d="m14,12c0,2.206,1.794,4,4,4s4-1.794,4-4-1.794-4-4-4-4,1.794-4,4Zm4-3c1.654,0,3,1.346,3,3s-1.346,3-3,3-2.999-1.346-2.999-3,1.345-3,2.999-3Zm-6-1c2.206,0,4-1.794,4-4S14.206,0,12,0s-4,1.794-4,4,1.794,4,4,4Zm0-7c1.654,0,3,1.346,3,3s-1.346,3-3,3-3-1.346-3-3,1.346-3,3-3Zm-6,15c2.206,0,4-1.794,4-4s-1.794-4-4-4-4,1.794-4,4,1.794,4,4,4Zm0-7c1.654,0,3,1.346,3,3s-1.346,3-3,3-3-1.346-3-3,1.346-3,3-3Zm18,14.25v.25c0,.276-.224.5-.5.5s-.5-.224-.5-.5v-.25c0-1.737-.86-3.359-2.302-4.339-.234-.161-.568-.099-.758.138l-1.206,1.508c-.45.563-1.393.565-1.845,0l-1.25-1.562c-.186-.233-.518-.297-.753-.142-1.494.974-2.386,2.618-2.386,4.398v.25c0,.276-.224.5-.5.5s-.5-.224-.5-.5v-.25c0-1.737-.861-3.359-2.302-4.339-.236-.159-.568-.099-.758.138l-1.206,1.508c-.225.281-.561.443-.922.443h0c-.36,0-.696-.162-.922-.443l-1.251-1.563c-.186-.233-.516-.296-.753-.142-1.494.974-2.386,2.618-2.386,4.398v.25c0,.276-.224.5-.5.5S0,23.776,0,23.5v-.25C0,21.131,1.062,19.173,2.84,18.014c.663-.431,1.575-.275,2.08.355l1.25,1.563c.093.118.188.119.282,0l1.206-1.508c.514-.642,1.437-.792,2.101-.34,1.012.688,1.775,1.646,2.238,2.737.477-1.13,1.277-2.113,2.342-2.807.662-.431,1.575-.276,2.081.355l1.25,1.563c.096.121.19.116.282,0l1.206-1.508c.515-.641,1.438-.791,2.101-.341,1.716,1.167,2.74,3.098,2.74,5.167Z"/>
</svg>
