<?xml version="1.0" encoding="utf-8"?>
<!-- Generator: Adobe Illustrator 28.3.0, SVG Export Plug-In . SVG Version: 6.00 Build 0)  -->
<svg version="1.1" id="Layer_1" xmlns="http://www.w3.org/2000/svg" xmlns:xlink="http://www.w3.org/1999/xlink" x="0px" y="0px"
	 viewBox="0 0 24 24" style="enable-background:new 0 0 24 24;" xml:space="preserve">
<path d="M13,6c0,0.6-0.4,1-1,1s-1-0.4-1-1s0.4-1,1-1S13,5.4,13,6z M13,18c0,0.6-0.4,1-1,1s-1-0.4-1-1s0.4-1,1-1S13,17.4,13,18z
	 M13,12c0,0.6-0.4,1-1,1s-1-0.4-1-1s0.4-1,1-1S13,11.4,13,12z"/>
</svg>
