<?xml version="1.0" encoding="utf-8"?>
<!-- Generator: Adobe Illustrator 28.3.0, SVG Export Plug-In . SVG Version: 6.00 Build 0)  -->
<svg version="1.1" id="Layer_1" xmlns="http://www.w3.org/2000/svg" xmlns:xlink="http://www.w3.org/1999/xlink" x="0px" y="0px"
	 viewBox="0 0 512 512" style="enable-background:new 0 0 512 512;" xml:space="preserve">
<style type="text/css">
	.st0{fill:#FFFFFF;}
</style>
<path d="M394.7,0H160c-41.8,0-77.2,26.7-90.5,64H32c-6,0-10.7,4.7-10.7,10.7c0,6,4.7,10.7,10.7,10.7h32.6c-0.4,3.4-0.6,7-0.6,10.7
	v64H32c-6,0-10.7,4.7-10.7,10.7c0,6,4.7,10.7,10.7,10.7h32v64H32c-6,0-10.7,4.7-10.7,10.7S26,266.7,32,266.7h32v64H32
	c-6,0-10.7,4.7-10.7,10.7c0,6,4.7,10.7,10.7,10.7h32v64c0,3.6,0,7.3,0.6,10.7H32c-6,0-10.7,4.7-10.7,10.7S26,448,32,448h37.5
	c13.2,37.3,48.9,64,90.5,64h234.7c52.9,0,96-43.1,96-96V96C490.7,43.1,447.6,0,394.7,0z"/>
<path class="st0" d="M85.3,416V96c0-41.2,33.5-74.7,74.7-74.7h10.7v469.3H160C118.8,490.7,85.3,457.2,85.3,416z"/>
<path class="st0" d="M469.3,416c0,41.2-33.5,74.7-74.7,74.7H192V21.3h202.7c41.2,0,74.7,33.5,74.7,74.7V416z"/>
</svg>
