<?xml version="1.0" encoding="UTF-8"?>
<svg xmlns="http://www.w3.org/2000/svg" id="Layer_1" data-name="Layer 1" viewBox="0 0 24 24" width="512" height="512"><path d="M14,0C8.486,0,4,4.486,4,10c0,1.852,.507,3.587,1.387,5.076L.732,19.732c-.975,.975-.975,2.561,0,3.535,.487,.487,1.127,.731,1.768,.731s1.28-.244,1.768-.731l4.656-4.656c1.489,.881,3.225,1.388,5.077,1.388,5.514,0,10-4.486,10-10S19.514,0,14,0ZM3.561,22.561c-.584,.584-1.537,.584-2.121,0s-.585-1.536,0-2.121l4.511-4.513c.597,.809,1.313,1.525,2.122,2.122l-4.512,4.512Zm10.439-3.561c-4.963,0-9-4.037-9-9S9.037,1,14,1s9,4.037,9,9-4.037,9-9,9Zm6-9c0,3.309-2.691,6-6,6s-6-2.691-6-6,2.691-6,6-6c.276,0,.5,.224,.5,.5s-.224,.5-.5,.5c-2.757,0-5,2.243-5,5s2.243,5,5,5,5-2.243,5-5c0-.276,.224-.5,.5-.5s.5,.224,.5,.5Z"/></svg>
