<?xml version="1.0" encoding="UTF-8"?>
<svg xmlns="http://www.w3.org/2000/svg" id="Layer_1" data-name="Layer 1" viewBox="0 0 24 24" width="512" height="512"><path d="m13.461,7.646c1.065-1.065,1.582-2.171,1.536-3.285-.073-1.748-1.491-2.968-1.505-2.979-.211-.179-.237-.494-.059-.705.179-.209.494-.237.705-.059.072.062,1.768,1.52,1.858,3.701.059,1.405-.556,2.763-1.828,4.034-.098.098-.226.146-.354.146s-.256-.049-.354-.146c-.195-.195-.195-.512,0-.707Zm-4.461-4.646c.552,0,1-.448,1-1s-.448-1-1-1-1,.448-1,1,.448,1,1,1Zm12,4c.552,0,1-.448,1-1s-.448-1-1-1-1,.448-1,1,.448,1,1,1ZM2,4c.552,0,1-.448,1-1s-.448-1-1-1-1,.448-1,1,.448,1,1,1Zm18.977,7.003c-.99-.047-1.943.387-2.831,1.274-.195.195-.195.512,0,.707.098.098.226.146.354.146s.256-.049.354-.146c.679-.679,1.397-1.01,2.074-.983,1.094.042,1.883.945,1.891.954.18.209.495.234.704.056.209-.179.236-.492.058-.703-.043-.051-1.068-1.241-2.603-1.305ZM23,0c-.552,0-1,.448-1,1s.448,1,1,1,1-.448,1-1-.448-1-1-1Zm-7.417,18.362h0l-13.041,5.49c-.236.1-.481.148-.722.148-.47,0-.925-.186-1.28-.54-.536-.536-.687-1.303-.393-2.002l5.491-13.042c.3-.712.931-1.226,1.689-1.374.755-.145,1.536.089,2.083.636l6.911,6.911c.546.546.783,1.325.635,2.083s-.662,1.39-1.374,1.689Zm-10.079-7.046c.006.002.006,0,.003-.007l-.003.007Zm6.224,7.584l-6.627-6.627L1.069,21.848c-.135.321-.069.66.178.906s.585.312.906.177l9.574-4.031Zm.964-.406c-.006-.003-.009-.003-.007.003l.007-.003Zm2.924-3.197l-6.911-6.911c-.252-.252-.579-.387-.923-.387-.086,0-.173.009-.261.025-.437.086-.787.37-.959.781l-1.041,2.473,7.203,7.203,2.472-1.041c.411-.173.695-.523.781-.96.085-.438-.046-.868-.361-1.184Zm6.386,1.703c-.552,0-1,.448-1,1s.448,1,1,1,1-.448,1-1-.448-1-1-1Zm-5,5c-.552,0-1,.448-1,1s.448,1,1,1,1-.448,1-1-.448-1-1-1Z"/></svg>
