<?xml version="1.0" encoding="UTF-8"?>
<svg xmlns="http://www.w3.org/2000/svg" id="Layer_1" data-name="Layer 1" viewBox="0 0 24 24">
  <path d="m8.056,23.743c-.091.164-.262.257-.438.257-.082,0-.166-.021-.242-.062C2.688,21.333,0,16.981,0,12,0,5.383,5.383,0,12,0c1.245,0,2.474.19,3.652.565.263.084.408.365.325.628-.083.264-.363.407-.628.325-1.08-.344-2.206-.519-3.348-.519C5.935,1,1,5.935,1,12c0,4.607,2.501,8.64,6.862,11.062.242.135.329.438.194.681Zm15.377-15.396c-.084-.263-.364-.406-.628-.324-.263.084-.408.365-.324.629.344,1.077.519,2.204.519,3.348,0,3.859-3.14,7-7,7s-7-3.141-7-7v-.5c0-.276-.224-.5-.5-.5s-.5.224-.5.5v.5c0,4.411,3.589,8,8,8s8-3.589,8-8c0-1.247-.19-2.477-.566-3.652Zm-10.408-.908L19.732.732c.943-.945,2.592-.945,3.535,0,.975.975.975,2.561,0,3.535l-6.707,6.707c-.651.651-1.554,1.025-2.475,1.025h-1.586c-.276,0-.5-.224-.5-.5v-1.586c0-.936.364-1.814,1.025-2.475Zm.707.707c-.472.472-.732,1.1-.732,1.768v1.086h1.086c.658,0,1.302-.267,1.768-.732l6.707-6.707c.585-.585.585-1.536,0-2.121-.566-.566-1.555-.566-2.121,0l-6.707,6.707Z"/>
</svg>
