<?xml version="1.0" encoding="UTF-8"?>
<svg xmlns="http://www.w3.org/2000/svg" id="Layer_1" data-name="Layer 1" viewBox="0 0 24 24" width="512" height="512"><path d="m19.5,0H4.5C2.019,0,0,2.019,0,4.5v15c0,2.481,2.019,4.5,4.5,4.5h15c2.481,0,4.5-2.019,4.5-4.5V4.5c0-2.481-2.019-4.5-4.5-4.5Zm3.5,19.5c0,1.93-1.57,3.5-3.5,3.5H4.5c-1.93,0-3.5-1.57-3.5-3.5V4.5c0-1.93,1.57-3.5,3.5-3.5h15c1.93,0,3.5,1.57,3.5,3.5v15ZM14.732,5.732L6.025,14.439c-.661.66-1.025,1.539-1.025,2.475v1.586c0,.276.224.5.5.5h1.586c.921,0,1.823-.374,2.475-1.025l8.707-8.707c.975-.975.975-2.561,0-3.535-.943-.945-2.592-.945-3.535,0Zm-5.879,11.535c-.465.466-1.11.732-1.768.732h-1.086v-1.086c0-.668.26-1.296.732-1.768l6.604-6.604,2.121,2.121-6.604,6.604Zm8.707-8.707l-1.396,1.396-2.121-2.121,1.396-1.396c.566-.566,1.555-.566,2.121,0,.585.585.585,1.536,0,2.121Z"/></svg>
