<?xml version="1.0" encoding="utf-8"?>
<!-- Generator: Adobe Illustrator 28.3.0, SVG Export Plug-In . SVG Version: 6.00 Build 0)  -->
<svg version="1.1" id="Layer_1" xmlns="http://www.w3.org/2000/svg" xmlns:xlink="http://www.w3.org/1999/xlink" x="0px" y="0px"
	 viewBox="0 0 512 512" style="enable-background:new 0 0 512 512;" xml:space="preserve">
<path d="M256,512C114.8,512,0,397.2,0,256S114.8,0,256,0s256,114.8,256,256S397.2,512,256,512z M256,21.3
	C126.6,21.3,21.3,126.6,21.3,256S126.6,490.7,256,490.7S490.7,385.4,490.7,256S385.4,21.3,256,21.3z M426.7,256
	c0-5.9-4.8-10.7-10.7-10.7c-5.9,0-10.7,4.8-10.7,10.7c0,82.3-67,149.3-149.3,149.3s-149.3-67-149.3-149.3s67-149.3,149.3-149.3
	c5.9,0,10.7-4.8,10.7-10.7s-4.8-10.7-10.7-10.7c-94.1,0-170.7,76.6-170.7,170.7S161.9,426.7,256,426.7S426.7,350.1,426.7,256z"/>
<rect x="248.9" y="98.9" transform="matrix(6.123234e-17 -1 1 6.123234e-17 3.5999 515.6)" width="21.3" height="314.2"/>
<rect x="245.3" y="98.9" transform="matrix(0.866 -0.5 0.5 0.866 -93.7025 162.2975)" width="21.3" height="314.2"/>
<path d="M148.5,367.1L148.5,367.1c-4.2-4.2-4.2-10.9,0-15.1l207.1-207.1c4.2-4.2,10.9-4.2,15.1,0v0c4.2,4.2,4.2,10.9,0,15.1
	L163.6,367.1C159.4,371.3,152.7,371.3,148.5,367.1z"/>
</svg>
