<?xml version="1.0" encoding="UTF-8"?>
<svg xmlns="http://www.w3.org/2000/svg" id="Layer_1" data-name="Layer 1" viewBox="0 0 24 24">
  <path d="m12,12c3.309,0,6-2.691,6-6S15.309,0,12,0s-6,2.691-6,6,2.691,6,6,6Zm0-11c2.757,0,5,2.243,5,5s-2.243,5-5,5-5-2.243-5-5S9.243,1,12,1Zm9,22v.5c0,.276-.224.5-.5.5s-.5-.224-.5-.5v-.5c0-3.538-2.309-6.547-5.499-7.599l-1.462,2.193,1.446,5.786c.066.268-.117.621-.485.621-.225,0-.429-.151-.485-.379l-1.5-6c-.034-.137-.009-.281.069-.398l1.391-2.086c-.478-.089-.971-.137-1.475-.137s-.996.047-1.474.137l1.39,2.086c.078.117.103.262.069.398l-1.5,6c-.057.228-.26.379-.484.379-.338,0-.553-.354-.485-.621l1.446-5.786-1.462-2.193c-3.19,1.052-5.5,4.061-5.5,7.599v.5c0,.276-.224.5-.5.5s-.5-.224-.5-.5v-.5c0-4.962,4.038-9,9-9s9,4.038,9,9Z"/>
</svg>
