<?xml version="1.0" encoding="utf-8"?>
<!-- Generator: Adobe Illustrator 28.3.0, SVG Export Plug-In . SVG Version: 6.00 Build 0)  -->
<svg version="1.1" id="Layer_1" xmlns="http://www.w3.org/2000/svg" xmlns:xlink="http://www.w3.org/1999/xlink" x="0px" y="0px"
	 viewBox="0 0 24 24" style="enable-background:new 0 0 24 24;" xml:space="preserve">
<path d="M12,12c3.3,0,6-2.7,6-6s-2.7-6-6-6S6,2.7,6,6S8.7,12,12,12z M12,1c2.8,0,5,2.2,5,5s-2.2,5-5,5S7,8.8,7,6S9.2,1,12,1z
	 M21,23.4v0.1c0,0.3-0.2,0.5-0.5,0.5S20,23.8,20,23.5V23c0-3.5-2.3-6.5-5.5-7.6c0,0,0,0,0,0l0,0c0,0,0,0,0,0l0,0
	c0.1,0.3-0.1-0.2,0,0c0,0,0,0.2,0,0l0,0c0-0.1-0.1,0.1,0,0l-1.1-0.3C13,15,12.5,15,12,15s-1,0-1.5,0.1l0,0c0.1,0.1,0-0.1,0,0l0,0
	c-0.1,0.2,0-0.1,0,0c-0.1,0.2-0.1,0.3,0,0l0,0c0,0,0,0,0,0l0,0c0,0-1,0.3-1.1,0.3C6.3,16.5,4,19.5,4,23v0.5C4,23.8,3.8,24,3.5,24
	S3,23.8,3,23.5V23c0-5.2,4.4-9.3,9.6-9C17.4,14.3,21,18.5,21,23.4z"/>
</svg>
