<?xml version="1.0" encoding="UTF-8"?>
<svg xmlns="http://www.w3.org/2000/svg" id="Layer_1" data-name="Layer 1" viewBox="0 0 24 24" width="512" height="512"><path d="M12.787,11.92L.854,23.854c-.098,.098-.226,.146-.354,.146s-.256-.049-.354-.146c-.195-.195-.195-.512,0-.707L12.08,11.213c-1.541-1.897-1.43-4.698,.335-6.464L17.018,.146c.195-.195,.512-.195,.707,0s.195,.512,0,.707l-4.603,4.603c-1.374,1.375-1.484,3.543-.33,5.045l7.354-7.354c.195-.195,.512-.195,.707,0s.195,.512,0,.707l-7.354,7.354c1.502,1.155,3.67,1.044,5.045-.33l4.603-4.603c.195-.195,.512-.195,.707,0s.195,.512,0,.707l-4.603,4.603c-.942,.942-2.18,1.413-3.418,1.413-1.081,0-2.161-.359-3.046-1.078Zm-6.104,1.831c.093,.076,.205,.113,.316,.113,.145,0,.289-.062,.388-.184,.175-.213,.143-.529-.071-.704C2.498,9.035,1.001,3.586,1.001,2.048v-.367c0-.409,.249-.57,.397-.629,.218-.085,.568-.087,.832,.192l6.102,6.596c.188,.203,.503,.215,.707,.028,.203-.188,.215-.504,.028-.707L2.96,.56C2.456,.027,1.697-.146,1.028,.123,.394,.375,0,.972,0,1.683v.365c0,1.954,1.684,7.613,6.684,11.703Zm9.684,1.302c-.188-.204-.504-.216-.707-.028-.203,.188-.215,.504-.028,.707l1.085,1.173c-1.787-.228-3.472-.668-5.026-1.313-.256-.105-.547,.015-.654,.27-.106,.255,.015,.548,.27,.654,1.968,.817,4.133,1.32,6.436,1.498l5.388,5.825c.099,.107,.233,.161,.367,.161,.122,0,.243-.044,.339-.133,.203-.188,.215-.504,.028-.707l-7.5-8.108Z"/></svg>
