<?xml version="1.0" encoding="utf-8"?>
<!-- Generator: Adobe Illustrator 28.1.0, SVG Export Plug-In . SVG Version: 6.00 Build 0)  -->
<svg version="1.1" id="Ebene_1" xmlns="http://www.w3.org/2000/svg" xmlns:xlink="http://www.w3.org/1999/xlink" x="0px" y="0px"
	 viewBox="0 0 800 800" style="enable-background:new 0 0 800 800;" xml:space="preserve">
<g id="Interface__x2F__Settings">
	<g id="Vector">
		<path d="M504.8,747.6c-7.3,0-14.7-0.8-21.9-2.4c-15.8-3.5-27.9-10.8-49.8-24l-12.5-7.5c-1.1-0.6-1.6-1-2.2-1.3
			c-4.6-2.5-9.8-4-15.1-4.2c-0.5,0-1.5,0-3.3,0c-1.8,0-2.7,0-3.3,0c-5.2,0.2-10.5,1.6-15.1,4.2c-0.5,0.3-1.1,0.7-2.8,1.6l-11.8,7.1
			c-21.9,13.1-33.9,20.3-49.6,23.8c-14,3.1-28.1,3.2-42.2,0.3c-15.8-3.3-27.9-10.3-50-23l-16.5-9.5C186.6,700,174.3,693,163.6,681
			c-9.6-10.7-16.6-23.1-20.8-36.8c-4.8-15.5-4.6-30.4-4.2-55.1l0.2-13.6c0-1.9,0-2.9,0-3.4c-0.1-5.3-1.4-10.4-3.8-15
			c-0.3-0.5-0.6-1-1-1.8l-0.7-1.1c-1-1.7-1.5-2.6-1.8-3c-2.8-4.5-6.6-8.3-11.1-11c-0.3-0.2-1.1-0.6-2-1.1l-13-7.2
			c-22.2-12.4-34.5-19.2-45.4-31c-9.7-10.5-16.8-22.7-21.4-36.3c-5.1-15.4-5.1-30.2-5.2-54.7l0-18.7c-0.1-24.8-0.1-39.7,5-55.1
			c4.5-13.7,11.7-26,21.5-36.5c11-11.9,23.3-18.7,45.7-31.2l13-7.2c0.9-0.5,1.4-0.7,1.9-1c4.6-2.7,8.5-6.5,11.3-11.1
			c0.3-0.4,0.5-0.9,0.9-1.6l0.7-1.2c0.9-1.6,1.4-2.4,1.6-2.8c2.5-4.7,3.9-9.9,4-15.1c0-0.2,0-0.5,0-0.7c0-0.7,0-1.5-0.1-2.6
			l-0.2-14.1c-0.4-24.6-0.7-39.5,4.1-54.9c4.3-13.7,11.2-26,20.7-36.7c10.6-11.9,22.6-18.9,44.4-31.6c0.2-0.1,0.3-0.2,0.5-0.3
			l16.3-9.4c0.2-0.1,0.5-0.3,0.7-0.4c21.7-12.6,33.8-19.6,49.4-22.8c14.1-2.9,28.3-2.8,42.3,0.3c15.7,3.5,27.9,10.8,49.8,24
			l12.8,7.7c0.8,0.5,1.3,0.8,1.8,1.1c4.6,2.6,9.8,4,15.1,4.2c0.5,0,1.6,0,3.3,0c1.7,0,2.7,0,3.3,0c5.3-0.2,10.5-1.6,15.1-4.2
			c0.5-0.3,1.3-0.7,2.8-1.7l11.8-7.1c0.3-0.2,0.5-0.3,0.8-0.4c21.4-12.8,33.4-19.9,48.9-23.4c14-3.1,28.2-3.3,42.2-0.4
			c15.7,3.3,27.9,10.3,50,23l16.5,9.5c21.4,12.3,34.3,19.8,45.1,31.8c9.6,10.7,16.6,23.1,20.8,36.8c4.8,15.3,4.5,29.3,4.1,54.7
			l-0.2,14.2c0,1.9,0,2.6,0,3.3c0.1,5.3,1.5,10.6,4,15.3c0.3,0.6,0.7,1.3,1.5,2.7l0.9,1.6c0.3,0.6,0.6,1,0.8,1.4
			c2.8,4.5,6.6,8.3,11.2,11c0.7,0.4,1.4,0.8,2.8,1.6l11.8,6.5c0.2,0.1,0.3,0.2,0.5,0.3c22.2,12.4,34.5,19.2,45.3,31
			c9.7,10.5,16.9,22.7,21.4,36.3c5.1,15.2,5.1,29.3,5.1,54.7l0,19.2c0.1,25.4,0.1,39.4-4.9,54.7c-4.5,13.7-11.7,26-21.5,36.5
			c-10.9,11.9-23.3,18.7-45.7,31.2l-12,6.7c-0.2,0.1-0.3,0.2-0.5,0.3c-1.2,0.7-1.9,1.1-2.3,1.3c-4.6,2.7-8.5,6.5-11.3,11.1
			c-0.4,0.7-0.8,1.4-1.7,2.8c-0.8,1.4-1.2,2.1-1.6,2.8c-2.5,4.6-3.8,9.9-3.9,15.2c0,0.6,0,1.3,0,3.2l0.2,14.6
			c0.4,24.4,0.7,39.1-4.1,54.4c-4.2,13.7-11.2,26-20.7,36.7c-10.7,12-22.7,19-44.7,31.8l-16.5,9.6c-22.1,12.8-34.3,19.9-50.1,23.2
			C518.5,746.9,511.7,747.6,504.8,747.6z M400,641.5c2.4,0,3.8,0,5.4,0c15.9,0.5,31.7,4.9,45.5,12.6c1.3,0.7,2.4,1.4,4,2.3l12.5,7.5
			c15.5,9.3,24.8,14.9,30.1,16.1c4.7,1.1,9.4,1.1,14.1,0.1c5.2-1.1,14.6-6.6,30.2-15.6l16.5-9.6c15.5-9,24.8-14.4,28.3-18.4
			c3.2-3.6,5.5-7.7,6.9-12.2c1.6-5,1.4-15.7,1.1-33.5l-0.2-14.7c0-2.5,0-3.9,0-5.4c0.2-15.9,4.3-31.7,11.9-45.8
			c0.7-1.4,1.4-2.6,2.6-4.6c0,0,0.1-0.1,0.1-0.1c1.2-2,1.9-3.2,2.7-4.5c8.4-13.5,20.1-25,33.8-33.2c1.3-0.8,2.5-1.5,4.5-2.6
			c0.2-0.1,0.3-0.2,0.5-0.3l11.7-6.5c15.8-8.8,25.4-14.1,29-18c3.2-3.5,5.6-7.6,7.1-12.2c1.7-5,1.6-15.8,1.6-33.7l0-19.2
			c0-18-0.1-28.8-1.8-33.9c-1.5-4.5-3.9-8.6-7.1-12.1c-3.6-3.9-12.9-9.1-28.3-17.7c-0.2-0.1-0.3-0.2-0.5-0.3l-12.2-6.8
			c-2-1.1-3.3-1.9-4.6-2.7c-13.6-8.2-25.2-19.6-33.6-33c-0.6-0.9-1.1-1.9-2-3.3l-0.9-1.5c-1.1-1.9-1.8-3.1-2.5-4.4
			c-7.5-14.1-11.6-29.9-11.9-45.8c0-1.5,0-2.9,0-5.4l0.2-14.2c0.3-17.9,0.5-28.7-1.1-33.8c-1.4-4.6-3.8-8.7-6.9-12.3
			c-3.6-4-13-9.5-28.6-18.5l-16.5-9.5c-15.6-9-25-14.4-30.2-15.5c-4.7-1-9.4-0.9-14.1,0.1c-5.2,1.2-14.5,6.7-29.9,15.9
			c-0.3,0.2-0.5,0.3-0.8,0.5l-11.1,6.7c-1.9,1.1-3.2,1.9-4.7,2.7c-13.8,7.7-29.5,12-45.3,12.5c-1.6,0.1-3,0.1-5.4,0.1
			c-2.4,0-3.8,0-5.4-0.1c-15.9-0.5-31.6-4.9-45.5-12.6c-1.3-0.7-2.3-1.3-3.8-2.2l-12.8-7.7c-15.5-9.3-24.9-14.9-30.1-16.1
			c-4.7-1-9.4-1.1-14.1-0.1c-5.3,1.1-14.7,6.6-30.3,15.6c-0.3,0.1-0.5,0.3-0.8,0.4l-15.2,8.8c-0.2,0.1-0.3,0.2-0.5,0.3
			c-15.5,9-24.8,14.4-28.3,18.4c-3.2,3.6-5.5,7.7-6.9,12.2c-1.6,5.2-1.4,16-1.1,34l0.2,14.2c0,0.8,0,1.4,0,1.9c0,1.1,0.1,2.1,0,3.5
			c-0.2,15.9-4.4,31.7-11.9,45.8c-0.8,1.4-1.5,2.6-2.6,4.6l-0.6,1.1c-0.9,1.6-1.5,2.5-2.1,3.5c-8.4,13.6-20.1,25-33.8,33.2
			c-1.2,0.7-2.3,1.3-3.8,2.1l-12.9,7.2c-15.8,8.8-25.4,14.1-29,18c-3.2,3.5-5.6,7.6-7.1,12.2c-1.7,5.2-1.7,16.1-1.6,34.1l0,18.7
			c0,18.8,0.1,28.9,1.8,33.9c1.5,4.6,3.9,8.6,7.1,12.1c3.6,4,13.1,9.2,28.8,17.9l12.9,7.2c1.6,0.9,2.8,1.6,4.2,2.4
			c13.5,8.1,25,19.5,33.4,33c0.9,1.5,1.7,2.9,2.9,5l0.6,1.1c0.8,1.5,1.5,2.6,2.2,3.9c7.3,13.8,11.3,29.4,11.5,45c0,1.7,0,3.2,0,5.7
			l-0.2,13.6c-0.3,18-0.5,28.9,1.1,34.1c1.4,4.6,3.8,8.7,6.9,12.3c3.6,4,13,9.4,28.7,18.5l16.5,9.5c15.6,9,25,14.4,30.3,15.5
			c4.7,1,9.4,0.9,14-0.1c5.2-1.2,14.6-6.8,30-16l11.8-7.1c2.1-1.2,3.3-2,4.7-2.7c13.9-7.7,29.6-12,45.4-12.6
			C396.2,641.5,397.6,641.5,400,641.5z"/>
		<path d="M400,566.7c-91.9,0-166.7-74.8-166.7-166.7c0-91.9,74.8-166.7,166.7-166.7c91.9,0,166.7,74.8,166.7,166.7
			C566.7,491.9,491.9,566.7,400,566.7z M400,300c-55.1,0-100,44.9-100,100c0,55.1,44.9,100,100,100c55.1,0,100-44.9,100-100
			C500,344.9,455.2,300,400,300z"/>
	</g>
</g>
</svg>
