<?xml version="1.0" encoding="UTF-8"?>
<svg xmlns="http://www.w3.org/2000/svg" id="Layer_1" data-name="Layer 1" viewBox="0 0 24 24" width="512" height="512"><path d="m4,4.036V.5c0-.276-.224-.5-.5-.5s-.5.224-.5.5v3.536c-1.694.243-3,1.704-3,3.464s1.306,3.221,3,3.464v12.536c0,.276.224.5.5.5s.5-.224.5-.5v-12.536c1.694-.243,3-1.704,3-3.464s-1.306-3.221-3-3.464Zm-.5,5.964c-1.379,0-2.5-1.121-2.5-2.5s1.121-2.5,2.5-2.5,2.5,1.121,2.5,2.5-1.121,2.5-2.5,2.5Zm9,3.036V.5c0-.276-.224-.5-.5-.5s-.5.224-.5.5v12.536c-1.694.243-3,1.704-3,3.464s1.306,3.221,3,3.464v3.536c0,.276.224.5.5.5s.5-.224.5-.5v-3.536c1.694-.243,3-1.704,3-3.464s-1.306-3.221-3-3.464Zm-.5,5.964c-1.379,0-2.5-1.121-2.5-2.5s1.121-2.5,2.5-2.5,2.5,1.121,2.5,2.5-1.121,2.5-2.5,2.5Zm12-11.5c0-1.76-1.306-3.221-3-3.464V.5c0-.276-.224-.5-.5-.5s-.5.224-.5.5v3.536c-1.694.243-3,1.704-3,3.464s1.306,3.221,3,3.464v12.536c0,.276.224.5.5.5s.5-.224.5-.5v-12.536c1.694-.243,3-1.704,3-3.464Zm-3.5,2.5c-1.379,0-2.5-1.121-2.5-2.5s1.121-2.5,2.5-2.5,2.5,1.121,2.5,2.5-1.121,2.5-2.5,2.5Z"/></svg>
