<?xml version="1.0" encoding="UTF-8"?>
<svg xmlns="http://www.w3.org/2000/svg" id="Layer_1" data-name="Layer 1" viewBox="0 0 24 24" width="512" height="512"><path d="m19.5,0H4.5C2.019,0,0,2.019,0,4.5v15c0,2.481,2.019,4.5,4.5,4.5h15c2.481,0,4.5-2.019,4.5-4.5V4.5c0-2.481-2.019-4.5-4.5-4.5Zm3.5,19.5c0,1.93-1.57,3.5-3.5,3.5H4.5c-1.93,0-3.5-1.57-3.5-3.5V4.5c0-1.93,1.57-3.5,3.5-3.5h15c1.93,0,3.5,1.57,3.5,3.5v15Zm-4.43-6.753c.386.474.537,1.088.414,1.685-.558,2.709-2.685,5.568-6.979,5.569-.071,0-.142,0-.213-.002-3.809-.083-6.792-3.26-6.792-7.232v-1.525c0-3.852,3.021-7.098,6.734-7.235,2.464-.1,4.833,1.145,6.165,3.226.149.232.081.542-.151.69-.233.149-.542.081-.69-.151-1.16-1.812-3.156-2.854-5.286-2.766-3.182.119-5.771,2.916-5.771,6.236v1.525c0,3.424,2.554,6.161,5.814,6.232,3.82.085,5.705-2.409,6.191-4.769.062-.301-.015-.611-.21-.851-.196-.241-.486-.379-.795-.379h-5c-.276,0-.5-.224-.5-.5s.224-.5.5-.5h5c.611,0,1.183.272,1.57.747Z"/></svg>
