<?xml version="1.0" encoding="UTF-8"?>
<svg xmlns="http://www.w3.org/2000/svg" id="Layer_1" data-name="Layer 1" viewBox="0 0 24 24">
  <path d="m15.854,10.854l-3.146,3.146,3.146,3.146c.195.195.195.512,0,.707-.098.098-.226.146-.354.146s-.256-.049-.354-.146l-3.146-3.146-3.146,3.146c-.098.098-.226.146-.354.146s-.256-.049-.354-.146c-.195-.195-.195-.512,0-.707l3.146-3.146-3.146-3.146c-.195-.195-.195-.512,0-.707s.512-.195.707,0l3.146,3.146,3.146-3.146c.195-.195.512-.195.707,0s.195.512,0,.707Zm7.146-6.354c0,.276-.224.5-.5.5h-1.5c0,.015,0,.03-.002.046l-1.37,14.867c-.215,2.33-2.142,4.087-4.481,4.087h-6.272c-2.337,0-4.263-1.754-4.48-4.08l-1.392-14.873c-.001-.016-.002-.031-.002-.047h-1.5c-.276,0-.5-.224-.5-.5s.224-.5.5-.5h5.028c.25-2.247,2.16-4,4.472-4h2c2.312,0,4.223,1.753,4.472,4h5.028c.276,0,.5.224.5.5Zm-15.464-.5h8.928c-.243-1.694-1.704-3-3.464-3h-2c-1.76,0-3.221,1.306-3.464,3Zm12.462,1H4.002l1.387,14.826c.168,1.81,1.667,3.174,3.484,3.174h6.272c1.82,0,3.318-1.366,3.485-3.179l1.366-14.821Z"/>
</svg>
